<svg width="275" height="247" viewBox="0 0 275 247" fill="none" xmlns="http://www.w3.org/2000/svg">
<g clip-path="url(#clip0_2_58)">
<path d="M137.84 190.47C67.54 190.47 38.94 226.21 30.69 246.47H244.48C239.12 226.21 205.75 190.47 137.84 190.47Z" fill="white"/>
<path d="M261 113.84C250.7 103.84 218.11 97.56 203.89 104.56C224.83 95.35 238.68 75.71 239 54.41C239.39 29.03 219.89 7.40998 197.48 1.22998C190.472 -0.651644 183.05 -0.288853 176.259 2.26731C169.467 4.82346 163.648 9.44436 159.62 15.48C152.94 25.4 143.7 41.08 137.83 59.16C131.96 41.08 122.72 25.4 116.05 15.48C112.019 9.43458 106.191 4.80725 99.3896 2.25058C92.588 -0.306085 85.1553 -0.663071 78.14 1.22998C55.73 7.40998 36.23 29.03 36.61 54.41C36.94 75.71 50.78 95.35 71.72 104.56C62.16 100.56 28.16 100.56 14.62 113.84C-1.93 130.06 -4.52 156.84 7.52 174.78C16.4 188.03 33 196.16 47.65 194.84C52.2424 194.386 56.7058 193.059 60.8 190.93C69.38 186.79 107.73 168.29 138.53 168.36C168.08 168.44 199.7 182.36 212.21 188.6C216.16 190.6 223.21 194.35 228.02 194.84C242.86 196.34 259.46 187.93 268.14 174.78C280.11 156.56 275.11 127.56 261 113.84Z" fill="white"/>
</g>
<defs>
<clipPath id="clip0_2_58">
<rect width="274.86" height="246.47" fill="white"/>
</clipPath>
</defs>
</svg>
